<?xml version="1.0" standalone="no"?>
<!DOCTYPE svg PUBLIC "-//W3C//DTD SVG 20010904//EN"
 "http://www.w3.org/TR/2001/REC-SVG-20010904/DTD/svg10.dtd">
<svg version="1.0" xmlns="http://www.w3.org/2000/svg"
 width="50.000000pt" height="50.000000pt" viewBox="0 0 50.000000 50.000000"
 preserveAspectRatio="xMidYMid meet">

<g transform="translate(0.000000,50.000000) scale(0.100000,-0.100000)"
fill="#000000" stroke="none">
<path d="M147 323 c-53 -93 -108 -186 -122 -209 l-24 -41 37 -36 37 -36 69 47
68 47 -40 5 -41 5 57 98 c31 53 59 97 62 97 3 0 31 -44 62 -97 l57 -98 -38 -5
-39 -5 68 -47 67 -47 36 37 35 37 -121 208 c-67 114 -124 207 -127 207 -3 0
-49 -75 -103 -167z"/>
</g>
</svg>
